<svg width="400" height="300" viewBox="0 0 400 300" fill="none" xmlns="http://www.w3.org/2000/svg">
  <!-- Background Gradient -->
  <defs>
    <linearGradient id="digitalBg" x1="0%" y1="0%" x2="100%" y2="100%">
      <stop offset="0%" style="stop-color:#f0f9ff;stop-opacity:1" />
      <stop offset="50%" style="stop-color:#e0f2fe;stop-opacity:1" />
      <stop offset="100%" style="stop-color:#f8fafc;stop-opacity:1" />
    </linearGradient>
    <linearGradient id="adsGradient" x1="0%" y1="0%" x2="100%" y2="100%">
      <stop offset="0%" style="stop-color:#0ea5e9;stop-opacity:1" />
      <stop offset="100%" style="stop-color:#06b6d4;stop-opacity:1" />
    </linearGradient>
    <linearGradient id="conversionGradient" x1="0%" y1="0%" x2="100%" y2="100%">
      <stop offset="0%" style="stop-color:#10b981;stop-opacity:1" />
      <stop offset="100%" style="stop-color:#34d399;stop-opacity:1" />
    </linearGradient>
    <linearGradient id="performanceChart" x1="0%" y1="100%" x2="0%" y2="0%">
      <stop offset="0%" style="stop-color:#3b82f6;stop-opacity:0.8" />
      <stop offset="100%" style="stop-color:#60a5fa;stop-opacity:1" />
    </linearGradient>
  </defs>
  
  <!-- Background -->
  <rect width="400" height="300" fill="url(#digitalBg)"/>
  
  <!-- Main Dashboard -->
  <rect x="30" y="30" width="340" height="180" rx="12" fill="rgba(255,255,255,0.95)" stroke="rgba(0,0,0,0.1)"/>
  
  <!-- Header -->
  <rect x="40" y="40" width="320" height="25" rx="6" fill="url(#adsGradient)"/>
  <text x="200" y="55" text-anchor="middle" font-family="Arial, sans-serif" font-size="12" font-weight="bold" fill="white">DİJİTAL REKLAM KAMPANYA PERFORMANSI</text>
  
  <!-- Campaign Overview -->
  <rect x="50" y="75" width="300" height="55" rx="6" fill="#f8fafc"/>
  
  <!-- CTR -->
  <rect x="60" y="85" width="65" height="35" rx="4" fill="rgba(59,130,246,0.1)" stroke="#3b82f6"/>
  <text x="92.5" y="95" text-anchor="middle" font-family="Arial, sans-serif" font-size="7" fill="#6b7280">CTR</text>
  <text x="92.5" y="105" text-anchor="middle" font-family="Arial, sans-serif" font-size="12" font-weight="bold" fill="#3b82f6">8.7%</text>
  <text x="92.5" y="115" text-anchor="middle" font-family="Arial, sans-serif" font-size="6" fill="#3b82f6">↗ +340%</text>
  
  <!-- CPC -->
  <rect x="135" y="85" width="65" height="35" rx="4" fill="rgba(16,185,129,0.1)" stroke="#10b981"/>
  <text x="167.5" y="95" text-anchor="middle" font-family="Arial, sans-serif" font-size="7" fill="#6b7280">CPC</text>
  <text x="167.5" y="105" text-anchor="middle" font-family="Arial, sans-serif" font-size="12" font-weight="bold" fill="#10b981">₺0.32</text>
  <text x="167.5" y="115" text-anchor="middle" font-family="Arial, sans-serif" font-size="6" fill="#10b981">↘ -65%</text>
  
  <!-- Conversion Rate -->
  <rect x="210" y="85" width="65" height="35" rx="4" fill="rgba(245,158,11,0.1)" stroke="#f59e0b"/>
  <text x="242.5" y="95" text-anchor="middle" font-family="Arial, sans-serif" font-size="7" fill="#6b7280">CONVERSION</text>
  <text x="242.5" y="105" text-anchor="middle" font-family="Arial, sans-serif" font-size="12" font-weight="bold" fill="#f59e0b">12.4%</text>
  <text x="242.5" y="115" text-anchor="middle" font-family="Arial, sans-serif" font-size="6" fill="#f59e0b">↗ +280%</text>
  
  <!-- ROAS -->
  <rect x="285" y="85" width="55" height="35" rx="4" fill="rgba(139,92,246,0.1)" stroke="#8b5cf6"/>
  <text x="312.5" y="95" text-anchor="middle" font-family="Arial, sans-serif" font-size="7" fill="#6b7280">ROAS</text>
  <text x="312.5" y="105" text-anchor="middle" font-family="Arial, sans-serif" font-size="12" font-weight="bold" fill="#8b5cf6">6.8:1</text>
  <text x="312.5" y="115" text-anchor="middle" font-family="Arial, sans-serif" font-size="6" fill="#8b5cf6">Target: 4:1</text>
  
  <!-- Campaign Channels -->
  <rect x="50" y="140" width="150" height="60" rx="6" fill="#f1f5f9"/>
  <text x="125" y="152" text-anchor="middle" font-family="Arial, sans-serif" font-size="8" font-weight="bold" fill="#1f2937">KANAL PERFORMANSI</text>
  
  <!-- Google Ads -->
  <rect x="60" y="160" width="60" height="10" rx="2" fill="rgba(66,133,244,0.1)" stroke="#4285f4"/>
  <text x="65" y="167" font-family="Arial, sans-serif" font-size="6" fill="#4285f4">Google Ads</text>
  <text x="150" y="167" text-anchor="end" font-family="Arial, sans-serif" font-size="6" font-weight="bold" fill="#4285f4">45%</text>
  
  <!-- Meta Ads -->
  <rect x="60" y="175" width="60" height="10" rx="2" fill="rgba(24,119,242,0.1)" stroke="#1877f2"/>
  <text x="65" y="182" font-family="Arial, sans-serif" font-size="6" fill="#1877f2">Meta Ads</text>
  <text x="150" y="182" text-anchor="end" font-family="Arial, sans-serif" font-size="6" font-weight="bold" fill="#1877f2">35%</text>
  
  <!-- LinkedIn -->
  <rect x="60" y="190" width="60" height="10" rx="2" fill="rgba(10,102,194,0.1)" stroke="#0a66c2"/>
  <text x="65" y="197" font-family="Arial, sans-serif" font-size="6" fill="#0a66c2">LinkedIn</text>
  <text x="150" y="197" text-anchor="end" font-family="Arial, sans-serif" font-size="6" font-weight="bold" fill="#0a66c2">20%</text>
  
  <!-- Performance Chart -->
  <rect x="210" y="140" width="130" height="60" rx="6" fill="#f8fafc"/>
  <text x="275" y="152" text-anchor="middle" font-family="Arial, sans-serif" font-size="8" font-weight="bold" fill="#1f2937">AYLIK PERFORMANS TRENDİ</text>
  
  <!-- Chart Area -->
  <rect x="220" y="160" width="110" height="30" rx="2" fill="#ffffff"/>
  <line x1="225" y1="185" x2="325" y2="185" stroke="#e5e7eb" stroke-width="1"/>
  <line x1="225" y1="165" x2="225" y2="185" stroke="#e5e7eb" stroke-width="1"/>
  
  <!-- Performance Line -->
  <path d="M 230 180 L 240 175 L 250 170 L 260 165 L 270 168 L 280 163 L 290 160 L 300 158 L 310 155 L 320 152" 
        stroke="url(#performanceChart)" stroke-width="3" fill="none"/>
  
  <!-- Data Points -->
  <circle cx="230" cy="180" r="1.5" fill="#3b82f6"/>
  <circle cx="250" cy="170" r="1.5" fill="#3b82f6"/>
  <circle cx="270" cy="168" r="1.5" fill="#3b82f6"/>
  <circle cx="290" cy="160" r="1.5" fill="#3b82f6"/>
  <circle cx="310" cy="155" r="1.5" fill="#3b82f6"/>
  <circle cx="320" cy="152" r="1.5" fill="#3b82f6"/>
  
  <!-- Month Labels -->
  <text x="230" y="195" text-anchor="middle" font-family="Arial, sans-serif" font-size="5" fill="#6b7280">Oca</text>
  <text x="260" y="195" text-anchor="middle" font-family="Arial, sans-serif" font-size="5" fill="#6b7280">Mar</text>
  <text x="290" y="195" text-anchor="middle" font-family="Arial, sans-serif" font-size="5" fill="#6b7280">May</text>
  <text x="320" y="195" text-anchor="middle" font-family="Arial, sans-serif" font-size="5" fill="#6b7280">Tem</text>
  
  <!-- Device showing ads -->
  <rect x="40" y="230" width="80" height="60" rx="8" fill="rgba(255,255,255,0.9)" stroke="rgba(0,0,0,0.1)"/>
  <text x="80" y="242" text-anchor="middle" font-family="Arial, sans-serif" font-size="7" font-weight="bold" fill="#1f2937">DİJİTAL REKLAM</text>
  
  <!-- Desktop Ad -->
  <rect x="50" y="250" width="60" height="30" rx="4" fill="#f8fafc" stroke="#e5e7eb"/>
  <rect x="52" y="252" width="56" height="8" rx="2" fill="url(#adsGradient)"/>
  <text x="80" y="257" text-anchor="middle" font-family="Arial, sans-serif" font-size="4" font-weight="bold" fill="white">Premium Product</text>
  
  <!-- Ad Content -->
  <rect x="54" y="262" width="20" height="15" rx="2" fill="#dbeafe"/>
  <circle cx="64" cy="269.5" r="4" fill="#3b82f6"/>
  <text x="64" y="271" text-anchor="middle" font-family="Arial, sans-serif" font-size="3" fill="white">AD</text>
  
  <rect x="78" y="265" width="28" height="2" rx="1" fill="#1f2937"/>
  <rect x="78" y="269" width="24" height="1.5" rx="0.75" fill="#6b7280"/>
  <rect x="78" y="273" width="20" height="1.5" rx="0.75" fill="#6b7280"/>
  
  <!-- Mobile Phone with Ad -->
  <rect x="140" y="230" width="40" height="60" rx="8" fill="rgba(255,255,255,0.9)" stroke="rgba(0,0,0,0.1)"/>
  <rect x="145" y="238" width="30" height="44" rx="6" fill="#000"/>
  <rect x="147" y="240" width="26" height="40" rx="4" fill="#ffffff"/>
  
  <!-- Mobile Ad Interface -->
  <rect x="149" y="242" width="22" height="12" rx="2" fill="url(#adsGradient)"/>
  <text x="160" y="249" text-anchor="middle" font-family="Arial, sans-serif" font-size="3" font-weight="bold" fill="white">Mobil Reklam</text>
  
  <!-- Mobile Ad Content -->
  <rect x="149" y="256" width="22" height="20" rx="2" fill="#f8fafc"/>
  <circle cx="155" cy="263" r="2" fill="#10b981"/>
  <rect x="159" y="260" width="10" height="1" rx="0.5" fill="#1f2937"/>
  <rect x="159" y="263" width="8" height="1" rx="0.5" fill="#6b7280"/>
  <rect x="159" y="266" width="6" height="1" rx="0.5" fill="#6b7280"/>
  
  <rect x="151" y="270" width="18" height="4" rx="2" fill="#10b981"/>
  <text x="160" y="273" text-anchor="middle" font-family="Arial, sans-serif" font-size="2.5" font-weight="bold" fill="white">Hemen Al</text>
  
  <!-- Analytics Dashboard -->
  <rect x="200" y="230" width="100" height="60" rx="6" fill="rgba(255,255,255,0.9)" stroke="rgba(0,0,0,0.1)"/>
  <text x="250" y="242" text-anchor="middle" font-family="Arial, sans-serif" font-size="7" font-weight="bold" fill="#1f2937">GERÇEK ZAMANLI ANALİTİK</text>
  
  <!-- Real-time metrics -->
  <rect x="210" y="250" width="35" height="12" rx="2" fill="rgba(59,130,246,0.1)" stroke="#3b82f6"/>
  <text x="227.5" y="254" text-anchor="middle" font-family="Arial, sans-serif" font-size="5" fill="#3b82f6">Aktif Kampanya</text>
  <text x="227.5" y="260" text-anchor="middle" font-family="Arial, sans-serif" font-size="7" font-weight="bold" fill="#3b82f6">47</text>
  
  <rect x="255" y="250" width="35" height="12" rx="2" fill="rgba(16,185,129,0.1)" stroke="#10b981"/>
  <text x="272.5" y="254" text-anchor="middle" font-family="Arial, sans-serif" font-size="5" fill="#10b981">Bugünkü Tıklama</text>
  <text x="272.5" y="260" text-anchor="middle" font-family="Arial, sans-serif" font-size="7" font-weight="bold" fill="#10b981">12,458</text>
  
  <rect x="210" y="270" width="35" height="12" rx="2" fill="rgba(245,158,11,0.1)" stroke="#f59e0b"/>
  <text x="227.5" y="274" text-anchor="middle" font-family="Arial, sans-serif" font-size="5" fill="#f59e0b">Anlık CPC</text>
  <text x="227.5" y="280" text-anchor="middle" font-family="Arial, sans-serif" font-size="7" font-weight="bold" fill="#f59e0b">₺0.28</text>
  
  <rect x="255" y="270" width="35" height="12" rx="2" fill="rgba(139,92,246,0.1)" stroke="#8b5cf6"/>
  <text x="272.5" y="274" text-anchor="middle" font-family="Arial, sans-serif" font-size="5" fill="#8b5cf6">Conversion</text>
  <text x="272.5" y="280" text-anchor="middle" font-family="Arial, sans-serif" font-size="7" font-weight="bold" fill="#8b5cf6">847</text>
  
  <!-- Targeting Options -->
  <rect x="320" y="230" width="60" height="60" rx="6" fill="rgba(255,255,255,0.9)" stroke="rgba(0,0,0,0.1)"/>
  <text x="350" y="242" text-anchor="middle" font-family="Arial, sans-serif" font-size="7" font-weight="bold" fill="#1f2937">HEDEFLEME</text>
  
  <!-- Demographics -->
  <circle cx="335" cy="255" r="5" fill="rgba(239,68,68,0.2)"/>
  <circle cx="335" cy="255" r="3" fill="#ef4444"/>
  <text x="345" y="258" font-family="Arial, sans-serif" font-size="5" fill="#1f2937">Yaş: 25-45</text>
  
  <circle cx="335" cy="270" r="5" fill="rgba(34,197,94,0.2)"/>
  <circle cx="335" cy="270" r="3" fill="#22c55e"/>
  <text x="345" y="273" font-family="Arial, sans-serif" font-size="5" fill="#1f2937">İlgi: Tech</text>
  
  <circle cx="335" cy="285" r="5" fill="rgba(59,130,246,0.2)"/>
  <circle cx="335" cy="285" r="3" fill="#3b82f6"/>
  <text x="345" y="288" font-family="Arial, sans-serif" font-size="5" fill="#1f2937">Konum: İst</text>
  
  <!-- Success Badge -->
  <ellipse cx="200" cy="15" rx="95" ry="12" fill="rgba(14,165,233,0.9)"/>
  <text x="200" y="19" text-anchor="middle" font-family="Arial, sans-serif" font-size="9" font-weight="bold" fill="white">DİJİTAL REKLAM OPTİMİZASYONU BAŞARI HİKAYESİ</text>
  
  <!-- Click indicators -->
  <circle cx="25" cy="100" r="3" fill="rgba(59,130,246,0.6)"/>
  <circle cx="25" cy="100" r="1.5" fill="#3b82f6"/>
  <text x="32" y="103" font-family="Arial, sans-serif" font-size="4" fill="#3b82f6">Click</text>
  
  <circle cx="375" cy="150" r="3" fill="rgba(16,185,129,0.6)"/>
  <circle cx="375" cy="150" r="1.5" fill="#10b981"/>
  <text x="365" y="165" font-family="Arial, sans-serif" font-size="4" fill="#10b981">Convert</text>
  
  <!-- Currency symbols for revenue -->
  <text x="15" y="200" font-family="Arial, sans-serif" font-size="12" font-weight="bold" fill="rgba(139,92,246,0.5)">₺</text>
  <text x="380" y="80" font-family="Arial, sans-serif" font-size="14" font-weight="bold" fill="rgba(245,158,11,0.6)">₺</text>
  
  <!-- Arrow indicating growth -->
  <path d="M 370 200 L 375 195 L 380 200 L 375 190 Z" fill="rgba(16,185,129,0.7)"/>
</svg>