<svg width="400" height="300" viewBox="0 0 400 300" fill="none" xmlns="http://www.w3.org/2000/svg">
  <!-- Background Gradient -->
  <defs>
    <linearGradient id="growthBg" x1="0%" y1="0%" x2="100%" y2="100%">
      <stop offset="0%" style="stop-color:#ecfdf5;stop-opacity:1" />
      <stop offset="50%" style="stop-color:#f0fdf4;stop-opacity:1" />
      <stop offset="100%" style="stop-color:#f8fafc;stop-opacity:1" />
    </linearGradient>
    <linearGradient id="salesGradient" x1="0%" y1="0%" x2="100%" y2="100%">
      <stop offset="0%" style="stop-color:#16a34a;stop-opacity:1" />
      <stop offset="100%" style="stop-color:#22c55e;stop-opacity:1" />
    </linearGradient>
    <linearGradient id="revenueGradient" x1="0%" y1="0%" x2="100%" y2="100%">
      <stop offset="0%" style="stop-color:#dc2626;stop-opacity:1" />
      <stop offset="100%" style="stop-color:#f87171;stop-opacity:1" />
    </linearGradient>
    <linearGradient id="chartGradient" x1="0%" y1="100%" x2="0%" y2="0%">
      <stop offset="0%" style="stop-color:#10b981;stop-opacity:0.8" />
      <stop offset="100%" style="stop-color:#34d399;stop-opacity:1" />
    </linearGradient>
  </defs>
  
  <!-- Background -->
  <rect width="400" height="300" fill="url(#growthBg)"/>
  
  <!-- Main Dashboard -->
  <rect x="25" y="25" width="350" height="190" rx="15" fill="rgba(255,255,255,0.95)" stroke="rgba(0,0,0,0.1)"/>
  
  <!-- Header -->
  <rect x="35" y="35" width="330" height="30" rx="8" fill="url(#salesGradient)"/>
  <text x="200" y="53" text-anchor="middle" font-family="Arial, sans-serif" font-size="14" font-weight="bold" fill="white">HIZLI BÜYÜME STRATEJİSİ - BAŞARI ANALİZİ</text>
  
  <!-- Key Metrics Section -->
  <rect x="45" y="75" width="310" height="65" rx="8" fill="#f8fafc"/>
  
  <!-- Revenue Growth -->
  <rect x="55" y="85" width="70" height="45" rx="6" fill="rgba(220,38,38,0.1)" stroke="#dc2626"/>
  <text x="90" y="97" text-anchor="middle" font-family="Arial, sans-serif" font-size="8" fill="#6b7280">CİRO ARTIŞI</text>
  <text x="90" y="110" text-anchor="middle" font-family="Arial, sans-serif" font-size="18" font-weight="bold" fill="#dc2626">450%</text>
  <text x="90" y="123" text-anchor="middle" font-family="Arial, sans-serif" font-size="7" fill="#dc2626">↗ 6 ay içinde</text>
  
  <!-- Market Share -->
  <rect x="135" y="85" width="70" height="45" rx="6" fill="rgba(16,185,129,0.1)" stroke="#10b981"/>
  <text x="170" y="97" text-anchor="middle" font-family="Arial, sans-serif" font-size="8" fill="#6b7280">PAZAR PAYI</text>
  <text x="170" y="110" text-anchor="middle" font-family="Arial, sans-serif" font-size="18" font-weight="bold" fill="#10b981">23%</text>
  <text x="170" y="123" text-anchor="middle" font-family="Arial, sans-serif" font-size="7" fill="#10b981">↗ +18 puan</text>
  
  <!-- Customer Growth -->
  <rect x="215" y="85" width="70" height="45" rx="6" fill="rgba(59,130,246,0.1)" stroke="#3b82f6"/>
  <text x="250" y="97" text-anchor="middle" font-family="Arial, sans-serif" font-size="8" fill="#6b7280">MÜŞTERİ SAYISI</text>
  <text x="250" y="110" text-anchor="middle" font-family="Arial, sans-serif" font-size="18" font-weight="bold" fill="#3b82f6">15K+</text>
  <text x="250" y="123" text-anchor="middle" font-family="Arial, sans-serif" font-size="7" fill="#3b82f6">↗ 2,800% artış</text>
  
  <!-- ROI -->
  <rect x="295" y="85" width="60" height="45" rx="6" fill="rgba(245,158,11,0.1)" stroke="#f59e0b"/>
  <text x="325" y="97" text-anchor="middle" font-family="Arial, sans-serif" font-size="8" fill="#6b7280">ROI</text>
  <text x="325" y="110" text-anchor="middle" font-family="Arial, sans-serif" font-size="18" font-weight="bold" fill="#f59e0b">890%</text>
  <text x="325" y="123" text-anchor="middle" font-family="Arial, sans-serif" font-size="7" fill="#f59e0b">Record high</text>
  
  <!-- Growth Timeline -->
  <rect x="45" y="150" width="150" height="55" rx="6" fill="#f1f5f9"/>
  <text x="120" y="162" text-anchor="middle" font-family="Arial, sans-serif" font-size="9" font-weight="bold" fill="#1f2937">BÜYÜME ZAMANÇİZGİSİ</text>
  
  <!-- Timeline Chart -->
  <rect x="55" y="170" width="130" height="25" rx="3" fill="#ffffff"/>
  <line x1="60" y1="190" x2="175" y2="190" stroke="#e5e7eb" stroke-width="1"/>
  <line x1="60" y1="175" x2="60" y2="190" stroke="#e5e7eb" stroke-width="1"/>
  
  <!-- Growth Curve -->
  <path d="M 65 185 Q 80 180 95 175 Q 110 170 125 165 Q 140 160 155 155 Q 170 150 180 145" 
        stroke="url(#chartGradient)" stroke-width="4" fill="none"/>
  
  <!-- Milestone Points -->
  <circle cx="80" cy="180" r="2.5" fill="#10b981"/>
  <circle cx="110" cy="170" r="2.5" fill="#10b981"/>
  <circle cx="140" cy="160" r="2.5" fill="#10b981"/>
  <circle cx="170" cy="150" r="2.5" fill="#10b981"/>
  
  <!-- Month Labels -->
  <text x="65" y="200" text-anchor="middle" font-family="Arial, sans-serif" font-size="6" fill="#6b7280">Ay 1</text>
  <text x="95" y="200" text-anchor="middle" font-family="Arial, sans-serif" font-size="6" fill="#6b7280">Ay 3</text>
  <text x="125" y="200" text-anchor="middle" font-family="Arial, sans-serif" font-size="6" fill="#6b7280">Ay 5</text>
  <text x="155" y="200" text-anchor="middle" font-family="Arial, sans-serif" font-size="6" fill="#6b7280">Ay 6</text>
  
  <!-- Strategy Implementation -->
  <rect x="205" y="150" width="150" height="55" rx="6" fill="#f8fafc"/>
  <text x="280" y="162" text-anchor="middle" font-family="Arial, sans-serif" font-size="9" font-weight="bold" fill="#1f2937">UYGULANAN STRATEJİLER</text>
  
  <!-- Strategy Items -->
  <circle cx="220" cy="175" r="3" fill="#22c55e"/>
  <text x="230" y="178" font-family="Arial, sans-serif" font-size="7" fill="#1f2937">Ürün portföyü genişletme</text>
  
  <circle cx="220" cy="185" r="3" fill="#3b82f6"/>
  <text x="230" y="188" font-family="Arial, sans-serif" font-size="7" fill="#1f2937">Dijital pazarlama optimizasyonu</text>
  
  <circle cx="220" cy="195" r="3" fill="#f59e0b"/>
  <text x="230" y="198" font-family="Arial, sans-serif" font-size="7" fill="#1f2937">Müşteri deneyimi iyileştirme</text>
  
  <!-- Before/After Comparison -->
  <rect x="30" y="230" width="160" height="60" rx="8" fill="rgba(255,255,255,0.9)" stroke="rgba(0,0,0,0.1)"/>
  <text x="110" y="245" text-anchor="middle" font-family="Arial, sans-serif" font-size="9" font-weight="bold" fill="#1f2937">ÖNCE / SONRA KARŞILAŞTIRMA</text>
  
  <!-- Before Section -->
  <rect x="40" y="250" width="65" height="30" rx="4" fill="rgba(239,68,68,0.1)" stroke="#ef4444"/>
  <text x="72.5" y="260" text-anchor="middle" font-family="Arial, sans-serif" font-size="7" font-weight="bold" fill="#ef4444">ÖNCE</text>
  <text x="45" y="270" font-family="Arial, sans-serif" font-size="6" fill="#1f2937">Aylık Satış: ₺85K</text>
  <text x="45" y="277" font-family="Arial, sans-serif" font-size="6" fill="#1f2937">Müşteri: 520</text>
  
  <!-- After Section -->
  <rect x="115" y="250" width="65" height="30" rx="4" fill="rgba(34,197,94,0.1)" stroke="#22c55e"/>
  <text x="147.5" y="260" text-anchor="middle" font-family="Arial, sans-serif" font-size="7" font-weight="bold" fill="#22c55e">SONRA</text>
  <text x="120" y="270" font-family="Arial, sans-serif" font-size="6" fill="#1f2937">Aylık Satış: ₺468K</text>
  <text x="120" y="277" font-family="Arial, sans-serif" font-size="6" fill="#1f2937">Müşteri: 15,080</text>
  
  <!-- Market Position -->
  <rect x="210" y="230" width="80" height="60" rx="8" fill="rgba(255,255,255,0.9)" stroke="rgba(0,0,0,0.1)"/>
  <text x="250" y="245" text-anchor="middle" font-family="Arial, sans-serif" font-size="9" font-weight="bold" fill="#1f2937">PAZAR POZİSYONU</text>
  
  <!-- Market Ranking -->
  <circle cx="235" cy="260" r="8" fill="url(#salesGradient)"/>
  <text x="235" y="264" text-anchor="middle" font-family="Arial, sans-serif" font-size="8" font-weight="bold" fill="white">#3</text>
  <text x="250" y="264" font-family="Arial, sans-serif" font-size="7" fill="#1f2937">Pazar Lideri</text>
  
  <rect x="220" y="270" width="60" height="15" rx="3" fill="rgba(16,185,129,0.1)" stroke="#10b981"/>
  <text x="250" y="275" text-anchor="middle" font-family="Arial, sans-serif" font-size="6" fill="#10b981">Kategori Lideri</text>
  <text x="250" y="282" text-anchor="middle" font-family="Arial, sans-serif" font-size="8" font-weight="bold" fill="#10b981">23% Pazar Payı</text>
  
  <!-- Growth Projection -->
  <rect x="310" y="230" width="70" height="60" rx="8" fill="rgba(255,255,255,0.9)" stroke="rgba(0,0,0,0.1)"/>
  <text x="345" y="245" text-anchor="middle" font-family="Arial, sans-serif" font-size="9" font-weight="bold" fill="#1f2937">PROJEKSİYON</text>
  
  <!-- Future Targets -->
  <rect x="320" y="255" width="50" height="10" rx="2" fill="rgba(139,92,246,0.1)" stroke="#8b5cf6"/>
  <text x="345" y="261" text-anchor="middle" font-family="Arial, sans-serif" font-size="6" fill="#8b5cf6">12 Ay Hedef</text>
  
  <text x="345" y="273" text-anchor="middle" font-family="Arial, sans-serif" font-size="8" font-weight="bold" fill="#dc2626">₺850K</text>
  <text x="345" y="280" text-anchor="middle" font-family="Arial, sans-serif" font-size="6" fill="#dc2626">Aylık Ciro</text>
  
  <text x="345" y="287" text-anchor="middle" font-family="Arial, sans-serif" font-size="6" fill="#6b7280">25K+ Müşteri</text>
  
  <!-- Success Indicators -->
  <g transform="translate(20, 60)">
    <circle cx="0" cy="0" r="6" fill="rgba(34,197,94,0.2)"/>
    <path d="M -3 0 L -1 2 L 3 -2" stroke="#22c55e" stroke-width="2" fill="none" stroke-linecap="round"/>
  </g>
  
  <g transform="translate(380, 120)">
    <circle cx="0" cy="0" r="6" fill="rgba(34,197,94,0.2)"/>
    <path d="M -3 0 L -1 2 L 3 -2" stroke="#22c55e" stroke-width="2" fill="none" stroke-linecap="round"/>
  </g>
  
  <!-- Growth Arrows -->
  <path d="M 15 180 L 10 175 L 15 170 L 20 175 Z" fill="rgba(16,185,129,0.7)"/>
  <path d="M 385 200 L 380 195 L 385 190 L 390 195 Z" fill="rgba(16,185,129,0.7)"/>
  
  <!-- Success Badge -->
  <ellipse cx="200" cy="12" rx="100" ry="10" fill="rgba(22,163,74,0.9)"/>
  <text x="200" y="16" text-anchor="middle" font-family="Arial, sans-serif" font-size="8" font-weight="bold" fill="white">HIZLI BÜYÜME STRATEJİSİ - BAŞARI HİKAYESİ</text>
  
  <!-- Revenue symbols -->
  <text x="10" y="120" font-family="Arial, sans-serif" font-size="16" font-weight="bold" fill="rgba(220,38,38,0.5)">₺</text>
  <text x="385" y="60" font-family="Arial, sans-serif" font-size="14" font-weight="bold" fill="rgba(245,158,11,0.6)">₺</text>
  
  <!-- Star ratings -->
  <path d="M 30 200 L 32 206 L 38 206 L 33 210 L 35 216 L 30 212 L 25 216 L 27 210 L 22 206 L 28 206 Z" fill="#fbbf24" opacity="0.8"/>
  <path d="M 365 180 L 367 186 L 373 186 L 368 190 L 370 196 L 365 192 L 360 196 L 362 190 L 357 186 L 363 186 Z" fill="#fbbf24" opacity="0.7"/>
</svg>