<svg width="400" height="300" viewBox="0 0 400 300" fill="none" xmlns="http://www.w3.org/2000/svg">
  <!-- Background Gradient -->
  <defs>
    <linearGradient id="marketplaceBg" x1="0%" y1="0%" x2="100%" y2="100%">
      <stop offset="0%" style="stop-color:#667eea;stop-opacity:1" />
      <stop offset="50%" style="stop-color:#764ba2;stop-opacity:1" />
      <stop offset="100%" style="stop-color:#f093fb;stop-opacity:1" />
    </linearGradient>
    <linearGradient id="amazonGradient" x1="0%" y1="0%" x2="100%" y2="100%">
      <stop offset="0%" style="stop-color:#ff9900;stop-opacity:1" />
      <stop offset="100%" style="stop-color:#ffad33;stop-opacity:1" />
    </linearGradient>
    <linearGradient id="trendyolGradient" x1="0%" y1="0%" x2="100%" y2="100%">
      <stop offset="0%" style="stop-color:#f27a1a;stop-opacity:1" />
      <stop offset="100%" style="stop-color:#ff8c00;stop-opacity:1" />
    </linearGradient>
    <linearGradient id="hepsiburadaGradient" x1="0%" y1="0%" x2="100%" y2="100%">
      <stop offset="0%" style="stop-color:#ff6000;stop-opacity:1" />
      <stop offset="100%" style="stop-color:#ff7700;stop-opacity:1" />
    </linearGradient>
    <linearGradient id="deviceGradient" x1="0%" y1="0%" x2="100%" y2="100%">
      <stop offset="0%" style="stop-color:#ffffff;stop-opacity:1" />
      <stop offset="100%" style="stop-color:#f8fafc;stop-opacity:1" />
    </linearGradient>
  </defs>
  
  <!-- Background -->
  <rect width="400" height="300" fill="url(#marketplaceBg)"/>
  
  <!-- Floating Elements -->
  <circle cx="50" cy="50" r="15" fill="rgba(255,255,255,0.1)"/>
  <circle cx="350" cy="60" r="12" fill="rgba(255,255,255,0.08)"/>
  <circle cx="380" cy="250" r="18" fill="rgba(255,255,255,0.06)"/>
  <circle cx="30" cy="220" r="10" fill="rgba(255,255,255,0.07)"/>
  
  <!-- Amazon Section -->
  <rect x="40" y="40" width="90" height="60" rx="8" fill="rgba(255,255,255,0.95)" stroke="rgba(0,0,0,0.1)"/>
  <!-- Amazon Logo -->
  <rect x="45" y="45" width="80" height="15" rx="3" fill="url(#amazonGradient)"/>
  <text x="85" y="55" text-anchor="middle" font-family="Arial, sans-serif" font-size="8" font-weight="bold" fill="white">amazon</text>
  <!-- Curved arrow under amazon -->
  <path d="M 65 58 Q 85 62 105 58" stroke="#ff9900" stroke-width="2" fill="none"/>
  
  <!-- Amazon Product -->
  <rect x="48" y="65" width="25" height="20" rx="2" fill="#e5e7eb"/>
  <circle cx="60.5" cy="75" r="6" fill="#3b82f6"/>
  <rect x="48" y="87" width="20" height="2" rx="1" fill="#6b7280"/>
  <rect x="48" y="91" width="15" height="1.5" rx="0.75" fill="#059669"/>
  <text x="68" y="93" font-family="Arial, sans-serif" font-size="6" font-weight="bold" fill="#059669">Prime</text>
  
  <!-- Amazon Ads Manager -->
  <rect x="78" y="65" width="45" height="30" rx="3" fill="#ffffff" stroke="#e5e7eb"/>
  <text x="100.5" y="72" text-anchor="middle" font-family="Arial, sans-serif" font-size="5" font-weight="bold" fill="#1f2937">ADS MANAGER</text>
  <rect x="80" y="75" width="20" height="2" rx="1" fill="#ff9900"/>
  <rect x="80" y="79" width="15" height="2" rx="1" fill="#10b981"/>
  <rect x="80" y="83" width="18" height="2" rx="1" fill="#3b82f6"/>
  <rect x="80" y="87" width="12" height="2" rx="1" fill="#f59e0b"/>
  <text x="110" y="93" font-family="Arial, sans-serif" font-size="4" fill="#6b7280">ACoS: 15%</text>
  
  <!-- Trendyol Section -->
  <rect x="150" y="80" width="100" height="70" rx="8" fill="rgba(255,255,255,0.95)" stroke="rgba(0,0,0,0.1)"/>
  <!-- Trendyol Logo -->
  <rect x="155" y="85" width="60" height="12" rx="3" fill="url(#trendyolGradient)"/>
  <text x="185" y="93" text-anchor="middle" font-family="Arial, sans-serif" font-size="7" font-weight="bold" fill="white">Trendyol</text>
  
  <!-- Trendyol Interface -->
  <rect x="155" y="100" width="40" height="25" rx="3" fill="#f8fafc" stroke="#e5e7eb"/>
  <rect x="158" y="103" width="15" height="10" rx="2" fill="#f27a1a"/>
  <rect x="158" y="116" width="25" height="2" rx="1" fill="#6b7280"/>
  <rect x="158" y="120" width="20" height="1.5" rx="0.75" fill="#10b981"/>
  
  <!-- Trendyol Performance Chart -->
  <rect x="200" y="100" width="45" height="45" rx="3" fill="#ffffff" stroke="#e5e7eb"/>
  <text x="222.5" y="108" text-anchor="middle" font-family="Arial, sans-serif" font-size="5" font-weight="bold" fill="#1f2937">PERFORMANCE</text>
  
  <!-- Chart bars -->
  <rect x="205" y="125" width="3" height="12" fill="#f27a1a"/>
  <rect x="210" y="120" width="3" height="17" fill="#10b981"/>
  <rect x="215" y="118" width="3" height="19" fill="#3b82f6"/>
  <rect x="220" y="122" width="3" height="15" fill="#f59e0b"/>
  <rect x="225" y="115" width="3" height="22" fill="#8b5cf6"/>
  <rect x="230" y="119" width="3" height="18" fill="#ef4444"/>
  <rect x="235" y="117" width="3" height="20" fill="#06b6d4"/>
  
  <!-- Hepsiburada Section -->
  <rect x="270" y="40" width="100" height="60" rx="8" fill="rgba(255,255,255,0.95)" stroke="rgba(0,0,0,0.1)"/>
  <!-- Hepsiburada Logo -->
  <rect x="275" y="45" width="70" height="12" rx="3" fill="url(#hepsiburadaGradient)"/>
  <text x="310" y="53" text-anchor="middle" font-family="Arial, sans-serif" font-size="6" font-weight="bold" fill="white">hepsiburada</text>
  
  <!-- Hepsiburada Product Grid -->
  <rect x="278" y="60" width="18" height="15" rx="2" fill="#e5e7eb"/>
  <rect x="300" y="60" width="18" height="15" rx="2" fill="#e5e7eb"/>
  <rect x="322" y="60" width="18" height="15" rx="2" fill="#e5e7eb"/>
  <rect x="344" y="60" width="18" height="15" rx="2" fill="#e5e7eb"/>
  
  <!-- Products in grid -->
  <circle cx="287" cy="67.5" r="5" fill="#ff6000"/>
  <circle cx="309" cy="67.5" r="5" fill="#10b981"/>
  <circle cx="331" cy="67.5" r="5" fill="#3b82f6"/>
  <circle cx="353" cy="67.5" r="5" fill="#f59e0b"/>
  
  <!-- Sponsored labels -->
  <rect x="278" y="78" width="15" height="4" rx="2" fill="#ff6000"/>
  <text x="285.5" y="81" text-anchor="middle" font-family="Arial, sans-serif" font-size="3" font-weight="bold" fill="white">AD</text>
  <rect x="300" y="78" width="15" height="4" rx="2" fill="#ff6000"/>
  <text x="307.5" y="81" text-anchor="middle" font-family="Arial, sans-serif" font-size="3" font-weight="bold" fill="white">AD</text>
  
  <!-- Main Laptop Display -->
  <rect x="120" y="160" width="160" height="100" rx="8" fill="url(#deviceGradient)" stroke="rgba(0,0,0,0.1)" stroke-width="2"/>
  <rect x="125" y="165" width="150" height="85" rx="4" fill="#f8fafc"/>
  
  <!-- Marketplace Dashboard -->
  <rect x="127" y="167" width="146" height="12" fill="#1f2937"/>
  <circle cx="133" cy="173" r="2" fill="#ef4444"/>
  <circle cx="139" cy="173" r="2" fill="#f59e0b"/>
  <circle cx="145" cy="173" r="2" fill="#10b981"/>
  <text x="200" y="176" text-anchor="middle" font-family="Arial, sans-serif" font-size="6" font-weight="bold" fill="white">Marketplace Dashboard</text>
  
  <!-- Tab Navigation -->
  <rect x="130" y="182" width="25" height="8" rx="2" fill="#ff9900"/>
  <text x="142.5" y="187" text-anchor="middle" font-family="Arial, sans-serif" font-size="4" font-weight="bold" fill="white">Amazon</text>
  <rect x="158" y="182" width="25" height="8" rx="2" fill="#f27a1a"/>
  <text x="170.5" y="187" text-anchor="middle" font-family="Arial, sans-serif" font-size="4" font-weight="bold" fill="white">Trendyol</text>
  <rect x="186" y="182" width="25" height="8" rx="2" fill="#ff6000"/>
  <text x="198.5" y="187" text-anchor="middle" font-family="Arial, sans-serif" font-size="4" font-weight="bold" fill="white">Hepsi</text>
  <rect x="214" y="182" width="25" height="8" rx="2" fill="#6b7280"/>
  <text x="226.5" y="187" text-anchor="middle" font-family="Arial, sans-serif" font-size="4" font-weight="bold" fill="white">N11</text>
  
  <!-- Campaign Performance -->
  <rect x="130" y="195" width="60" height="45" rx="3" fill="#ffffff" stroke="#e5e7eb"/>
  <text x="160" y="203" text-anchor="middle" font-family="Arial, sans-serif" font-size="6" font-weight="bold" fill="#1f2937">CAMPAIGNS</text>
  
  <!-- Campaign List -->
  <rect x="133" y="207" width="54" height="4" rx="2" fill="#e5e7eb"/>
  <rect x="133" y="207" width="40" height="4" rx="2" fill="#10b981"/>
  <text x="168" y="210" font-family="Arial, sans-serif" font-size="4" fill="#10b981">Active</text>
  
  <rect x="133" y="214" width="54" height="4" rx="2" fill="#e5e7eb"/>
  <rect x="133" y="214" width="30" height="4" rx="2" fill="#f59e0b"/>
  <text x="167" y="217" font-family="Arial, sans-serif" font-size="4" fill="#f59e0b">Paused</text>
  
  <rect x="133" y="221" width="54" height="4" rx="2" fill="#e5e7eb"/>
  <rect x="133" y="221" width="45" height="4" rx="2" fill="#3b82f6"/>
  <text x="169" y="224" font-family="Arial, sans-serif" font-size="4" fill="#3b82f6">Running</text>
  
  <rect x="133" y="228" width="54" height="4" rx="2" fill="#e5e7eb"/>
  <rect x="133" y="228" width="35" height="4" rx="2" fill="#ef4444"/>
  <text x="165" y="231" font-family="Arial, sans-serif" font-size="4" fill="#ef4444">Budget</text>
  
  <!-- Analytics Section -->
  <rect x="195" y="195" width="70" height="45" rx="3" fill="#ffffff" stroke="#e5e7eb"/>
  <text x="230" y="203" text-anchor="middle" font-family="Arial, sans-serif" font-size="6" font-weight="bold" fill="#1f2937">ANALYTICS</text>
  
  <!-- Key Metrics -->
  <text x="198" y="212" font-family="Arial, sans-serif" font-size="5" fill="#6b7280">ROAS:</text>
  <text x="220" y="212" font-family="Arial, sans-serif" font-size="5" font-weight="bold" fill="#10b981">6.8:1</text>
  <text x="198" y="219" font-family="Arial, sans-serif" font-size="5" fill="#6b7280">ACoS:</text>
  <text x="218" y="219" font-family="Arial, sans-serif" font-size="5" font-weight="bold" fill="#3b82f6">14.5%</text>
  <text x="198" y="226" font-family="Arial, sans-serif" font-size="5" fill="#6b7280">CTR:</text>
  <text x="215" y="226" font-family="Arial, sans-serif" font-size="5" font-weight="bold" fill="#f59e0b">2.8%</text>
  <text x="198" y="233" font-family="Arial, sans-serif" font-size="5" fill="#6b7280">Conv:</text>
  <text x="218" y="233" font-family="Arial, sans-serif" font-size="5" font-weight="bold" fill="#8b5cf6">4.2%</text>
  
  <!-- Mobile Optimization -->
  <rect x="40" y="180" width="60" height="80" rx="12" fill="url(#deviceGradient)" stroke="rgba(0,0,0,0.1)" stroke-width="1"/>
  <rect x="45" y="188" width="50" height="60" rx="8" fill="#000"/>
  <rect x="47" y="190" width="46" height="56" rx="6" fill="#ffffff"/>
  
  <!-- Mobile Marketplace -->
  <rect x="49" y="192" width="42" height="8" fill="#ff9900"/>
  <text x="70" y="197" text-anchor="middle" font-family="Arial, sans-serif" font-size="4" font-weight="bold" fill="white">Mobile Shopping</text>
  
  <!-- Mobile Products -->
  <rect x="50" y="203" width="18" height="15" rx="2" fill="#e5e7eb"/>
  <rect x="72" y="203" width="18" height="15" rx="2" fill="#e5e7eb"/>
  <circle cx="59" cy="210.5" r="5" fill="#ff6000"/>
  <circle cx="81" cy="210.5" r="5" fill="#10b981"/>
  
  <!-- Mobile Ad Labels -->
  <rect x="50" y="221" width="12" height="3" rx="1.5" fill="#ff6000"/>
  <text x="56" y="223.5" text-anchor="middle" font-family="Arial, sans-serif" font-size="2.5" font-weight="bold" fill="white">AD</text>
  <rect x="72" y="221" width="12" height="3" rx="1.5" fill="#ff6000"/>
  <text x="78" y="223.5" text-anchor="middle" font-family="Arial, sans-serif" font-size="2.5" font-weight="bold" fill="white">AD</text>
  
  <!-- Search bar -->
  <rect x="50" y="228" width="38" height="6" rx="3" fill="#f3f4f6" stroke="#d1d5db"/>
  <circle cx="83" cy="231" r="2" fill="#6b7280"/>
  
  <!-- Keywords Cloud -->
  <rect x="310" y="150" width="70" height="50" rx="6" fill="rgba(255,255,255,0.9)" stroke="rgba(0,0,0,0.1)"/>
  <text x="345" y="162" text-anchor="middle" font-family="Arial, sans-serif" font-size="6" font-weight="bold" fill="#1f2937">KEYWORDS</text>
  
  <!-- Keyword bubbles -->
  <ellipse cx="320" cy="175" rx="12" ry="6" fill="#3b82f6" opacity="0.8"/>
  <text x="320" y="177" text-anchor="middle" font-family="Arial, sans-serif" font-size="4" fill="white">telefon</text>
  <ellipse cx="350" cy="170" rx="15" ry="6" fill="#10b981" opacity="0.8"/>
  <text x="350" y="172" text-anchor="middle" font-family="Arial, sans-serif" font-size="4" fill="white">laptop</text>
  <ellipse cx="335" cy="185" rx="10" ry="5" fill="#f59e0b" opacity="0.8"/>
  <text x="335" y="187" text-anchor="middle" font-family="Arial, sans-serif" font-size="3" fill="white">ayakkabı</text>
  <ellipse cx="365" cy="190" rx="8" ry="4" fill="#ef4444" opacity="0.8"/>
  <text x="365" y="191" text-anchor="middle" font-family="Arial, sans-serif" font-size="3" fill="white">çanta</text>
  
  <!-- ROI Arrow -->
  <path d="M 80 270 Q 120 250 160 270" stroke="#10b981" stroke-width="4" fill="none"/>
  <path d="M 153 267 L 160 270 L 153 273 Z" fill="#10b981"/>
  <text x="120" y="260" text-anchor="middle" font-family="Arial, sans-serif" font-size="10" font-weight="bold" fill="#10b981">5X REVENUE</text>
  
  <!-- Performance Badge -->
  <ellipse cx="350" cy="280" rx="30" ry="12" fill="rgba(139,92,246,0.9)"/>
  <text x="350" y="283" text-anchor="middle" font-family="Arial, sans-serif" font-size="6" font-weight="bold" fill="white">Top 3 Ranking</text>
  
  <!-- Shopping Icons -->
  <circle cx="30" cy="130" r="12" fill="rgba(255,255,255,0.9)" stroke="#667eea" stroke-width="2"/>
  <rect x="26" y="127" width="8" height="5" rx="1" fill="none" stroke="#667eea" stroke-width="1"/>
  <circle cx="28" cy="135" r="1" fill="#667eea"/>
  <circle cx="32" cy="135" r="1" fill="#667eea"/>
  
  <!-- Dollar signs -->
  <text x="380" y="120" font-family="Arial, sans-serif" font-size="14" font-weight="bold" fill="rgba(255,255,255,0.7)">₺</text>
  <text x="20" y="280" font-family="Arial, sans-serif" font-size="12" font-weight="bold" fill="rgba(255,255,255,0.6)">₺</text>
</svg>