<svg width="400" height="300" viewBox="0 0 400 300" fill="none" xmlns="http://www.w3.org/2000/svg">
  <!-- Background Gradient -->
  <defs>
    <linearGradient id="threeDModelingBg" x1="0%" y1="0%" x2="100%" y2="100%">
      <stop offset="0%" style="stop-color:#f8fafc;stop-opacity:1" />
      <stop offset="50%" style="stop-color:#f1f5f9;stop-opacity:1" />
      <stop offset="100%" style="stop-color:#e2e8f0;stop-opacity:1" />
    </linearGradient>
    <linearGradient id="designGradient" x1="0%" y1="0%" x2="100%" y2="100%">
      <stop offset="0%" style="stop-color:#7c3aed;stop-opacity:1" />
      <stop offset="100%" style="stop-color:#a855f7;stop-opacity:1" />
    </linearGradient>
    <linearGradient id="renderGradient" x1="0%" y1="0%" x2="100%" y2="100%">
      <stop offset="0%" style="stop-color:#059669;stop-opacity:1" />
      <stop offset="100%" style="stop-color:#10b981;stop-opacity:1" />
    </linearGradient>
    <linearGradient id="qualityGradient" x1="0%" y1="0%" x2="100%" y2="100%">
      <stop offset="0%" style="stop-color:#dc2626;stop-opacity:1" />
      <stop offset="100%" style="stop-color:#f87171;stop-opacity:1" />
    </linearGradient>
  </defs>
  
  <!-- Background -->
  <rect width="400" height="300" fill="url(#threeDModelingBg)"/>
  
  <!-- Main Dashboard -->
  <rect x="25" y="25" width="350" height="190" rx="15" fill="rgba(255,255,255,0.95)" stroke="rgba(0,0,0,0.1)"/>
  
  <!-- Header -->
  <rect x="35" y="35" width="330" height="30" rx="8" fill="url(#designGradient)"/>
  <text x="200" y="53" text-anchor="middle" font-family="Arial, sans-serif" font-size="14" font-weight="bold" fill="white">3D MODELLEME &amp; VİZÜALİZASYON HİZMETİ</text>
  
  <!-- Service Metrics -->
  <rect x="45" y="75" width="310" height="65" rx="8" fill="#f8fafc"/>
  
  <!-- Model Quality -->
  <rect x="55" y="85" width="70" height="45" rx="6" fill="rgba(124,58,237,0.1)" stroke="#7c3aed"/>
  <text x="90" y="97" text-anchor="middle" font-family="Arial, sans-serif" font-size="8" fill="#6b7280">MODEL KALİTESİ</text>
  <text x="90" y="110" text-anchor="middle" font-family="Arial, sans-serif" font-size="18" font-weight="bold" fill="#7c3aed">4K</text>
  <text x="90" y="123" text-anchor="middle" font-family="Arial, sans-serif" font-size="7" fill="#7c3aed">Ultra HD</text>
  
  <!-- Render Time -->
  <rect x="135" y="85" width="70" height="45" rx="6" fill="rgba(5,150,105,0.1)" stroke="#059669"/>
  <text x="170" y="97" text-anchor="middle" font-family="Arial, sans-serif" font-size="8" fill="#6b7280">RENDER SÜRESI</text>
  <text x="170" y="110" text-anchor="middle" font-family="Arial, sans-serif" font-size="18" font-weight="bold" fill="#059669">24h</text>
  <text x="170" y="123" text-anchor="middle" font-family="Arial, sans-serif" font-size="7" fill="#059669">↘ -60% azaldı</text>
  
  <!-- Client Satisfaction -->
  <rect x="215" y="85" width="70" height="45" rx="6" fill="rgba(220,38,38,0.1)" stroke="#dc2626"/>
  <text x="250" y="97" text-anchor="middle" font-family="Arial, sans-serif" font-size="8" fill="#6b7280">MÜŞTERİ MEMNUNİYETİ</text>
  <text x="250" y="110" text-anchor="middle" font-family="Arial, sans-serif" font-size="18" font-weight="bold" fill="#dc2626">98%</text>
  <text x="250" y="123" text-anchor="middle" font-family="Arial, sans-serif" font-size="7" fill="#dc2626">5/5 ⭐</text>
  
  <!-- Projects Completed -->
  <rect x="295" y="85" width="60" height="45" rx="6" fill="rgba(245,158,11,0.1)" stroke="#f59e0b"/>
  <text x="325" y="97" text-anchor="middle" font-family="Arial, sans-serif" font-size="8" fill="#6b7280">PROJE SAYISI</text>
  <text x="325" y="110" text-anchor="middle" font-family="Arial, sans-serif" font-size="18" font-weight="bold" fill="#f59e0b">240+</text>
  <text x="325" y="123" text-anchor="middle" font-family="Arial, sans-serif" font-size="7" fill="#f59e0b">Tamamlandı</text>
  
  <!-- 3D Modeling Workflow -->
  <rect x="45" y="150" width="150" height="55" rx="6" fill="#f1f5f9"/>
  <text x="120" y="162" text-anchor="middle" font-family="Arial, sans-serif" font-size="9" font-weight="bold" fill="#1f2937">3D MODELLEME SÜRECİ</text>
  
  <!-- Workflow Steps -->
  <circle cx="65" cy="180" r="8" fill="url(#designGradient)"/>
  <text x="65" y="183" text-anchor="middle" font-family="Arial, sans-serif" font-size="6" font-weight="bold" fill="white">1</text>
  <text x="65" y="195" text-anchor="middle" font-family="Arial, sans-serif" font-size="6" fill="#1f2937">Konsept</text>
  
  <circle cx="95" cy="180" r="8" fill="url(#renderGradient)"/>
  <text x="95" y="183" text-anchor="middle" font-family="Arial, sans-serif" font-size="6" font-weight="bold" fill="white">2</text>
  <text x="95" y="195" text-anchor="middle" font-family="Arial, sans-serif" font-size="6" fill="#1f2937">Modelleme</text>
  
  <circle cx="125" cy="180" r="8" fill="url(#qualityGradient)"/>
  <text x="125" y="183" text-anchor="middle" font-family="Arial, sans-serif" font-size="6" font-weight="bold" fill="white">3</text>
  <text x="125" y="195" text-anchor="middle" font-family="Arial, sans-serif" font-size="6" fill="#1f2937">Texturing</text>
  
  <circle cx="155" cy="180" r="8" fill="#f59e0b"/>
  <text x="155" y="183" text-anchor="middle" font-family="Arial, sans-serif" font-size="6" font-weight="bold" fill="white">4</text>
  <text x="155" y="195" text-anchor="middle" font-family="Arial, sans-serif" font-size="6" fill="#1f2937">Render</text>
  
  <!-- Arrows between steps -->
  <path d="M 78 180 L 87 180" stroke="#6b7280" stroke-width="1" marker-end="url(#arrowhead)"/>
  <path d="M 108 180 L 117 180" stroke="#6b7280" stroke-width="1" marker-end="url(#arrowhead)"/>
  <path d="M 138 180 L 147 180" stroke="#6b7280" stroke-width="1" marker-end="url(#arrowhead)"/>
  
  <!-- Software Tools -->
  <rect x="205" y="150" width="150" height="55" rx="6" fill="#f8fafc"/>
  <text x="280" y="162" text-anchor="middle" font-family="Arial, sans-serif" font-size="9" font-weight="bold" fill="#1f2937">KULLANILAN YAZILIMLAR</text>
  
  <!-- Tool Icons and Names -->
  <rect x="220" y="172" width="25" height="25" rx="4" fill="#ff6b35"/>
  <text x="232.5" y="187" text-anchor="middle" font-family="Arial, sans-serif" font-size="7" font-weight="bold" fill="white">C4D</text>
  <text x="232.5" y="202" text-anchor="middle" font-family="Arial, sans-serif" font-size="5" fill="#1f2937">Cinema 4D</text>
  
  <rect x="255" y="172" width="25" height="25" rx="4" fill="#ff7b00"/>
  <text x="267.5" y="187" text-anchor="middle" font-family="Arial, sans-serif" font-size="7" font-weight="bold" fill="white">BLD</text>
  <text x="267.5" y="202" text-anchor="middle" font-family="Arial, sans-serif" font-size="5" fill="#1f2937">Blender</text>
  
  <rect x="290" y="172" width="25" height="25" rx="4" fill="#0072ce"/>
  <text x="302.5" y="187" text-anchor="middle" font-family="Arial, sans-serif" font-size="7" font-weight="bold" fill="white">3DS</text>
  <text x="302.5" y="202" text-anchor="middle" font-family="Arial, sans-serif" font-size="5" fill="#1f2937">3ds Max</text>
  
  <rect x="325" y="172" width="25" height="25" rx="4" fill="#c41e3a"/>
  <text x="337.5" y="187" text-anchor="middle" font-family="Arial, sans-serif" font-size="7" font-weight="bold" fill="white">MAY</text>
  <text x="337.5" y="202" text-anchor="middle" font-family="Arial, sans-serif" font-size="5" fill="#1f2937">Maya</text>
  
  <!-- 3D Model Showcase -->
  <rect x="30" y="230" width="120" height="60" rx="8" fill="rgba(255,255,255,0.9)" stroke="rgba(0,0,0,0.1)"/>
  <text x="90" y="245" text-anchor="middle" font-family="Arial, sans-serif" font-size="9" font-weight="bold" fill="#1f2937">3D MODEL ÖRNEĞİ</text>
  
  <!-- 3D Object Wireframe -->
  <g transform="translate(90, 265)">
    <!-- Cube in isometric view -->
    <path d="M -20 0 L 0 -10 L 20 0 L 0 10 Z" stroke="#7c3aed" stroke-width="2" fill="rgba(124,58,237,0.1)"/>
    <path d="M -20 0 L -20 15 L 0 25 L 0 10 Z" stroke="#7c3aed" stroke-width="2" fill="rgba(124,58,237,0.05)"/>
    <path d="M 0 10 L 0 25 L 20 15 L 20 0 Z" stroke="#7c3aed" stroke-width="2" fill="rgba(124,58,237,0.15)"/>
    
    <!-- Wireframe lines -->
    <line x1="-20" y1="0" x2="0" y2="-10" stroke="#a855f7" stroke-width="1" opacity="0.7"/>
    <line x1="0" y1="-10" x2="20" y2="0" stroke="#a855f7" stroke-width="1" opacity="0.7"/>
    <line x1="20" y1="0" x2="0" y2="10" stroke="#a855f7" stroke-width="1" opacity="0.7"/>
    <line x1="0" y1="10" x2="-20" y2="0" stroke="#a855f7" stroke-width="1" opacity="0.7"/>
  </g>
  
  <!-- Render Quality Demo -->
  <rect x="170" y="230" width="100" height="60" rx="8" fill="rgba(255,255,255,0.9)" stroke="rgba(0,0,0,0.1)"/>
  <text x="220" y="245" text-anchor="middle" font-family="Arial, sans-serif" font-size="9" font-weight="bold" fill="#1f2937">RENDER KALİTESİ</text>
  
  <!-- Quality Levels -->
  <rect x="180" y="255" width="35" height="8" rx="2" fill="rgba(239,68,68,0.1)" stroke="#ef4444"/>
  <text x="197.5" y="261" text-anchor="middle" font-family="Arial, sans-serif" font-size="5" fill="#ef4444">Standard</text>
  
  <rect x="180" y="267" width="35" height="8" rx="2" fill="rgba(245,158,11,0.1)" stroke="#f59e0b"/>
  <text x="197.5" y="273" text-anchor="middle" font-family="Arial, sans-serif" font-size="5" fill="#f59e0b">HD</text>
  
  <rect x="180" y="279" width="35" height="8" rx="2" fill="rgba(16,185,129,0.2)" stroke="#10b981"/>
  <text x="197.5" y="285" text-anchor="middle" font-family="Arial, sans-serif" font-size="5" font-weight="bold" fill="#10b981">4K Ultra</text>
  
  <!-- Quality Indicators -->
  <circle cx="225" cy="259" r="2" fill="#ef4444"/>
  <circle cx="230" cy="259" r="2" fill="#ef4444"/>
  <circle cx="235" cy="259" r="2" fill="#6b7280"/>
  
  <circle cx="225" cy="271" r="2" fill="#f59e0b"/>
  <circle cx="230" cy="271" r="2" fill="#f59e0b"/>
  <circle cx="235" cy="271" r="2" fill="#f59e0b"/>
  
  <circle cx="225" cy="283" r="2" fill="#10b981"/>
  <circle cx="230" cy="283" r="2" fill="#10b981"/>
  <circle cx="235" cy="283" r="2" fill="#10b981"/>
  <circle cx="240" cy="283" r="2" fill="#10b981"/>
  <circle cx="245" cy="283" r="2" fill="#10b981"/>
  
  <!-- Project Timeline -->
  <rect x="290" y="230" width="90" height="60" rx="8" fill="rgba(255,255,255,0.9)" stroke="rgba(0,0,0,0.1)"/>
  <text x="335" y="245" text-anchor="middle" font-family="Arial, sans-serif" font-size="9" font-weight="bold" fill="#1f2937">PROJE SÜRECİ</text>
  
  <!-- Timeline -->
  <line x1="305" y1="255" x2="365" y2="255" stroke="#e5e7eb" stroke-width="2"/>
  
  <!-- Timeline milestones -->
  <circle cx="310" cy="255" r="3" fill="#3b82f6"/>
  <text x="310" y="268" text-anchor="middle" font-family="Arial, sans-serif" font-size="5" fill="#1f2937">Gün 1</text>
  <text x="310" y="275" text-anchor="middle" font-family="Arial, sans-serif" font-size="4" fill="#6b7280">Brief</text>
  
  <circle cx="330" cy="255" r="3" fill="#f59e0b"/>
  <text x="330" y="268" text-anchor="middle" font-family="Arial, sans-serif" font-size="5" fill="#1f2937">Gün 3</text>
  <text x="330" y="275" text-anchor="middle" font-family="Arial, sans-serif" font-size="4" fill="#6b7280">Model</text>
  
  <circle cx="350" cy="255" r="3" fill="#10b981"/>
  <text x="350" y="268" text-anchor="middle" font-family="Arial, sans-serif" font-size="5" fill="#1f2937">Gün 5</text>
  <text x="350" y="275" text-anchor="middle" font-family="Arial, sans-serif" font-size="4" fill="#6b7280">Render</text>
  
  <circle cx="365" cy="255" r="3" fill="#22c55e"/>
  <text x="365" y="268" text-anchor="middle" font-family="Arial, sans-serif" font-size="5" fill="#1f2937">Gün 7</text>
  <text x="365" y="275" text-anchor="middle" font-family="Arial, sans-serif" font-size="4" fill="#6b7280">Teslimat</text>
  
  <!-- Technical Specifications -->
  <g transform="translate(15, 100)">
    <rect x="0" y="0" width="12" height="8" rx="2" fill="#7c3aed" opacity="0.8"/>
    <text x="6" y="5" text-anchor="middle" font-family="Arial, sans-serif" font-size="3" font-weight="bold" fill="white">4K</text>
  </g>
  
  <g transform="translate(380, 160)">
    <rect x="0" y="0" width="15" height="10" rx="2" fill="#10b981" opacity="0.7"/>
    <text x="7.5" y="6" text-anchor="middle" font-family="Arial, sans-serif" font-size="4" font-weight="bold" fill="white">HD</text>
  </g>
  
  <!-- Success Badge -->
  <ellipse cx="200" cy="12" rx="105" ry="10" fill="rgba(124,58,237,0.9)"/>
  <text x="200" y="16" text-anchor="middle" font-family="Arial, sans-serif" font-size="8" font-weight="bold" fill="white">PROFESYONEL 3D MODELLEME &amp; VİZÜALİZASYON HİZMETİ</text>
  
  <!-- Technical Icons -->
  <g transform="translate(20, 180)">
    <circle cx="0" cy="0" r="4" fill="rgba(124,58,237,0.2)"/>
    <circle cx="0" cy="0" r="2" fill="#7c3aed"/>
  </g>
  
  <g transform="translate(375, 100)">
    <circle cx="0" cy="0" r="5" fill="rgba(16,185,129,0.2)"/>
    <circle cx="0" cy="0" r="3" fill="#10b981"/>
  </g>
  
  <!-- Geometric shapes for design -->
  <path d="M 25 250 L 30 245 L 35 250 L 30 255 Z" fill="rgba(245,158,11,0.6)"/>
  <path d="M 370 220 L 375 215 L 380 220 L 375 225 Z" fill="rgba(59,130,246,0.6)"/>
  
  <!-- Arrow marker definition -->
  <defs>
    <marker id="arrowhead" markerWidth="10" markerHeight="7" refX="9" refY="3.5" orient="auto">
      <polygon points="0 0, 10 3.5, 0 7" fill="#6b7280"/>
    </marker>
  </defs>
</svg>