<svg width="400" height="400" viewBox="0 0 400 400" xmlns="http://www.w3.org/2000/svg">
  <defs>
    <linearGradient id="returnGradient" x1="0%" y1="0%" x2="100%" y2="100%">
      <stop offset="0%" style="stop-color:#3B82F6;stop-opacity:1" />
      <stop offset="100%" style="stop-color:#1E40AF;stop-opacity:1" />
    </linearGradient>
  </defs>
  
  <!-- Background -->
  <rect width="400" height="400" fill="#F8FAFC"/>
  
  <!-- Return process arrows -->
  <path d="M80 200 L160 200 L150 190 M160 200 L150 210" stroke="url(#returnGradient)" stroke-width="4" fill="none"/>
  <path d="M240 200 L320 200 L310 190 M320 200 L310 210" stroke="url(#returnGradient)" stroke-width="4" fill="none"/>
  <path d="M200 120 L200 80 L210 90 M200 80 L190 90" stroke="url(#returnGradient)" stroke-width="4" fill="none"/>
  <path d="M200 280 L200 320 L210 310 M200 320 L190 310" stroke="url(#returnGradient)" stroke-width="4" fill="none"/>
  
  <!-- Central processing hub -->
  <circle cx="200" cy="200" r="40" fill="url(#returnGradient)"/>
  <circle cx="200" cy="200" r="30" fill="#FFFFFF"/>
  <rect x="190" y="190" width="20" height="20" fill="url(#returnGradient)" rx="3"/>
  <rect x="195" y="195" width="10" height="10" fill="#FFFFFF" rx="1"/>
  
  <!-- Return packages -->
  <rect x="40" y="180" width="30" height="40" fill="#EF4444" rx="3"/>
  <text x="55" y="200" text-anchor="middle" fill="#FFFFFF" font-size="10" font-weight="bold">R</text>
  <rect x="45" y="175" width="20" height="3" fill="#FFFFFF"/>
  
  <rect x="330" y="180" width="30" height="40" fill="#10B981" rx="3"/>
  <text x="345" y="200" text-anchor="middle" fill="#FFFFFF" font-size="10" font-weight="bold">✓</text>
  <rect x="335" y="175" width="20" height="3" fill="#FFFFFF"/>
  
  <!-- Customer service representative -->
  <rect x="170" y="40" width="60" height="80" fill="#F3F4F6" rx="8"/>
  <circle cx="200" cy="65" r="15" fill="#FEF3C7"/>
  <rect x="190" y="75" width="20" height="30" fill="#3B82F6" rx="3"/>
  <rect x="185" y="90" width="30" height="15" fill="#F59E0B" rx="2"/>
  
  <!-- Headset -->
  <path d="M185 60 Q185 50 200 50 Q215 60 215 60" stroke="#374151" stroke-width="2" fill="none"/>
  <circle cx="183" cy="62" r="3" fill="#374151"/>
  
  <!-- Inspection station -->
  <rect x="170" y="320" width="60" height="60" fill="#E5E7EB" rx="5"/>
  <rect x="180" y="330" width="40" height="40" fill="#FFFFFF" rx="3"/>
  <circle cx="200" cy="350" r="8" fill="#06B6D4"/>
  <rect x="195" y="345" width="10" height="3" fill="#FFFFFF"/>
  <rect x="195" y="350" width="10" height="3" fill="#FFFFFF"/>
  <rect x="195" y="355" width="10" height="3" fill="#FFFFFF"/>
  
  <!-- Quality check marks -->
  <circle cx="160" cy="340" r="8" fill="#10B981"/>
  <path d="M155 340 L158 343 L165 336" stroke="#FFFFFF" stroke-width="2" fill="none"/>
  
  <circle cx="240" cy="340" r="8" fill="#EF4444"/>
  <path d="M235 335 L245 345 M245 335 L235 345" stroke="#FFFFFF" stroke-width="2"/>
  
  <!-- Process flow boxes -->
  <rect x="60" y="120" width="50" height="30" fill="#FEF3C7" rx="5"/>
  <text x="85" y="135" text-anchor="middle" fill="#92400E" font-size="8">Kabul</text>
  <text x="85" y="145" text-anchor="middle" fill="#92400E" font-size="8">Edildi</text>
  
  <rect x="290" y="120" width="50" height="30" fill="#DCFCE7" rx="5"/>
  <text x="315" y="135" text-anchor="middle" fill="#166534" font-size="8">İşlem</text>
  <text x="315" y="145" text-anchor="middle" fill="#166534" font-size="8">Tamam</text>
  
  <!-- Communication lines -->
  <path d="M120 200 Q140 180 160 180" stroke="#94A3B8" stroke-width="2" fill="none" stroke-dasharray="5,5"/>
  <path d="M240 180 Q260 180 280 200" stroke="#94A3B8" stroke-width="2" fill="none" stroke-dasharray="5,5"/>
</svg>
