<svg width="400" height="300" viewBox="0 0 400 300" fill="none" xmlns="http://www.w3.org/2000/svg">
  <!-- Background Gradient -->
  <defs>
    <linearGradient id="videoBg" x1="0%" y1="0%" x2="100%" y2="100%">
      <stop offset="0%" style="stop-color:#667eea;stop-opacity:1" />
      <stop offset="25%" style="stop-color:#764ba2;stop-opacity:1" />
      <stop offset="50%" style="stop-color:#f093fb;stop-opacity:1" />
      <stop offset="75%" style="stop-color:#f5576c;stop-opacity:1" />
      <stop offset="100%" style="stop-color:#4facfe;stop-opacity:1" />
    </linearGradient>
    <linearGradient id="phoneGradient" x1="0%" y1="0%" x2="100%" y2="100%">
      <stop offset="0%" style="stop-color:#ffffff;stop-opacity:1" />
      <stop offset="100%" style="stop-color:#f8fafc;stop-opacity:1" />
    </linearGradient>
    <linearGradient id="tiktokGradient" x1="0%" y1="0%" x2="100%" y2="100%">
      <stop offset="0%" style="stop-color:#ff0050;stop-opacity:1" />
      <stop offset="50%" style="stop-color:#00f2ea;stop-opacity:1" />
      <stop offset="100%" style="stop-color:#000000;stop-opacity:1" />
    </linearGradient>
    <linearGradient id="youtubeGradient" x1="0%" y1="0%" x2="100%" y2="100%">
      <stop offset="0%" style="stop-color:#ff0000;stop-opacity:1" />
      <stop offset="100%" style="stop-color:#cc0000;stop-opacity:1" />
    </linearGradient>
    <linearGradient id="reelsGradient" x1="0%" y1="0%" x2="100%" y2="100%">
      <stop offset="0%" style="stop-color:#f09433;stop-opacity:1" />
      <stop offset="25%" style="stop-color:#e6683c;stop-opacity:1" />
      <stop offset="50%" style="stop-color:#dc2743;stop-opacity:1" />
      <stop offset="75%" style="stop-color:#cc2366;stop-opacity:1" />
      <stop offset="100%" style="stop-color:#bc1888;stop-opacity:1" />
    </linearGradient>
  </defs>
  
  <!-- Background -->
  <rect width="400" height="300" fill="url(#videoBg)"/>
  
  <!-- Floating Elements -->
  <circle cx="50" cy="50" r="12" fill="rgba(255,255,255,0.1)"/>
  <circle cx="350" cy="60" r="15" fill="rgba(255,255,255,0.08)"/>
  <circle cx="380" cy="250" r="10" fill="rgba(255,255,255,0.06)"/>
  <circle cx="30" cy="220" r="8" fill="rgba(255,255,255,0.07)"/>
  
  <!-- Main TikTok Phone -->
  <rect x="160" y="40" width="80" height="140" rx="12" fill="url(#phoneGradient)" stroke="rgba(0,0,0,0.1)" stroke-width="1"/>
  <rect x="165" y="47" width="70" height="120" rx="8" fill="#000"/>
  <rect x="167" y="49" width="66" height="116" rx="6" fill="#000000"/>
  
  <!-- TikTok Interface -->
  <rect x="169" y="51" width="62" height="112" fill="#000000"/>
  
  <!-- TikTok Header -->
  <text x="200" y="62" text-anchor="middle" font-family="Arial, sans-serif" font-size="6" font-weight="bold" fill="#ffffff">For You</text>
  <text x="185" y="62" text-anchor="middle" font-family="Arial, sans-serif" font-size="6" fill="#8e8e8e">Following</text>
  <text x="215" y="62" text-anchor="middle" font-family="Arial, sans-serif" font-size="6" fill="#8e8e8e">Live</text>
  
  <!-- Main Video Area -->
  <rect x="172" y="68" width="56" height="80" rx="4" fill="url(#tiktokGradient)" opacity="0.9"/>
  
  <!-- Video Play Button -->
  <circle cx="200" cy="108" r="12" fill="rgba(255,255,255,0.3)"/>
  <path d="M196 108 L206 113 L196 118 Z" fill="#ffffff"/>
  
  <!-- Video Creator Info -->
  <circle cx="180" cy="135" r="6" fill="#ffffff"/>
  <circle cx="180" cy="133" r="4" fill="#ff0050"/>
  <rect x="176" y="137" width="8" height="6" rx="3" fill="#ff0050"/>
  
  <rect x="188" y="132" width="25" height="2" rx="1" fill="#ffffff"/>
  <rect x="188" y="136" width="20" height="1.5" rx="0.75" fill="#ffffff" opacity="0.8"/>
  <rect x="188" y="140" width="15" height="1.5" rx="0.75" fill="#ffffff" opacity="0.6"/>
  
  <!-- TikTok Side Panel -->
  <circle cx="220" cy="85" r="6" fill="#ffffff"/>
  <circle cx="220" cy="83" r="4" fill="#ff0050"/>
  
  <!-- Like Button -->
  <circle cx="220" cy="105" r="5" fill="#ffffff"/>
  <path d="M220 102 C220 100, 222 99, 223 100 C 224 99, 226 100, 226 102 C 226 104, 223 107, 223 107 C 223 107, 220 104, 220 102 Z" fill="#ff0050"/>
  <text x="220" y="116" text-anchor="middle" font-family="Arial, sans-serif" font-size="4" fill="#ffffff">2.5M</text>
  
  <!-- Comment Button -->
  <circle cx="220" cy="125" r="5" fill="#ffffff"/>
  <rect x="217" y="123" width="6" height="4" rx="1" fill="#00f2ea"/>
  <text x="220" y="136" text-anchor="middle" font-family="Arial, sans-serif" font-size="4" fill="#ffffff">850K</text>
  
  <!-- Share Button -->
  <circle cx="220" cy="145" r="5" fill="#ffffff"/>
  <path d="M217 145 L223 142 L223 148 Z" fill="#fbbf24"/>
  <text x="220" y="156" text-anchor="middle" font-family="Arial, sans-serif" font-size="4" fill="#ffffff">125K</text>
  
  <!-- Instagram Reels Phone -->
  <rect x="60" y="100" width="70" height="120" rx="12" fill="url(#phoneGradient)" stroke="rgba(0,0,0,0.1)" stroke-width="1"/>
  <rect x="65" y="107" width="60" height="100" rx="8" fill="#000"/>
  <rect x="67" y="109" width="56" height="96" rx="6" fill="#ffffff"/>
  
  <!-- Instagram Reels Interface -->
  <rect x="69" y="111" width="52" height="10" fill="#ffffff"/>
  <text x="95" y="118" text-anchor="middle" font-family="Arial, sans-serif" font-size="5" font-weight="bold" fill="#262626">Reels</text>
  
  <!-- Reels Video -->
  <rect x="72" y="125" width="46" height="65" rx="4" fill="url(#reelsGradient)" opacity="0.9"/>
  <circle cx="95" cy="157.5" r="10" fill="rgba(255,255,255,0.3)"/>
  <path d="M92 157.5 L100 162 L92 166.5 Z" fill="#ffffff"/>
  
  <!-- Reels Engagement -->
  <circle cx="110" cy="135" r="3" fill="#ffffff"/>
  <path d="M110 132 L112 135 L110 138 L108 135 Z" fill="#dc2743"/>
  <text x="110" y="145" text-anchor="middle" font-family="Arial, sans-serif" font-size="3" fill="#262626">1.2M</text>
  
  <circle cx="110" cy="155" r="3" fill="#ffffff"/>
  <rect x="107" y="153" width="6" height="4" rx="1" fill="#262626"/>
  <text x="110" y="165" text-anchor="middle" font-family="Arial, sans-serif" font-size="3" fill="#262626">450K</text>
  
  <circle cx="110" cy="175" r="3" fill="#ffffff"/>
  <path d="M107 175 L113 172 L113 178 Z" fill="#262626"/>
  <text x="110" y="185" text-anchor="middle" font-family="Arial, sans-serif" font-size="3" fill="#262626">89K</text>
  
  <!-- YouTube Shorts Phone -->
  <rect x="270" y="80" width="75" height="130" rx="12" fill="url(#phoneGradient)" stroke="rgba(0,0,0,0.1)" stroke-width="1"/>
  <rect x="275" y="87" width="65" height="110" rx="8" fill="#000"/>
  <rect x="277" y="89" width="61" height="106" rx="6" fill="#ffffff"/>
  
  <!-- YouTube Interface -->
  <rect x="279" y="91" width="57" height="10" fill="#ff0000"/>
  <text x="307.5" y="98" text-anchor="middle" font-family="Arial, sans-serif" font-size="5" font-weight="bold" fill="#ffffff">YouTube Shorts</text>
  
  <!-- YouTube Video -->
  <rect x="282" y="105" width="51" height="70" rx="4" fill="#000000"/>
  <rect x="284" y="107" width="47" height="66" fill="url(#youtubeGradient)" opacity="0.9"/>
  <circle cx="307.5" cy="140" r="8" fill="rgba(255,255,255,0.8)"/>
  <path d="M304 140 L312 144 L304 148 Z" fill="#ff0000"/>
  
  <!-- YouTube Stats -->
  <rect x="279" y="180" width="57" height="12" rx="2" fill="#f8f9fa"/>
  <text x="290" y="187" font-family="Arial, sans-serif" font-size="4" fill="#606060">5.2M views</text>
  <text x="315" y="187" font-family="Arial, sans-serif" font-size="4" fill="#606060">125K ❤</text>
  
  <!-- Video Analytics Dashboard -->
  <rect x="30" y="30" width="110" height="70" rx="8" fill="rgba(255,255,255,0.95)" stroke="rgba(0,0,0,0.1)"/>
  <text x="85" y="42" text-anchor="middle" font-family="Arial, sans-serif" font-size="8" font-weight="bold" fill="#1f2937">VIDEO ANALYTICS</text>
  
  <!-- Platform Performance -->
  <text x="35" y="52" font-family="Arial, sans-serif" font-size="6" fill="#6b7280">TikTok Views</text>
  <rect x="35" y="55" width="40" height="3" fill="#fce7f3"/>
  <rect x="35" y="55" width="35" height="3" fill="#ff0050"/>
  <text x="120" y="58" font-family="Arial, sans-serif" font-size="6" font-weight="bold" fill="#ff0050">12.5M</text>
  
  <text x="35" y="65" font-family="Arial, sans-serif" font-size="6" fill="#6b7280">Reels Reach</text>
  <rect x="35" y="68" width="40" height="3" fill="#fef3c7"/>
  <rect x="35" y="68" width="28" height="3" fill="#dc2743"/>
  <text x="115" y="71" font-family="Arial, sans-serif" font-size="6" font-weight="bold" fill="#dc2743">8.2M</text>
  
  <text x="35" y="78" font-family="Arial, sans-serif" font-size="6" fill="#6b7280">YouTube Shorts</text>
  <rect x="35" y="81" width="40" height="3" fill="#fee2e2"/>
  <rect x="35" y="81" width="32" height="3" fill="#ff0000"/>
  <text x="115" y="84" font-family="Arial, sans-serif" font-size="6" font-weight="bold" fill="#ff0000">5.2M</text>
  
  <text x="35" y="91" font-family="Arial, sans-serif" font-size="6" fill="#6b7280">Engagement Rate</text>
  <rect x="35" y="94" width="40" height="3" fill="#dcfce7"/>
  <rect x="35" y="94" width="30" height="3" fill="#10b981"/>
  <text x="120" y="97" font-family="Arial, sans-serif" font-size="6" font-weight="bold" fill="#10b981">9.8%</text>
  
  <!-- Video Production Setup -->
  <rect x="250" y="220" width="120" height="60" rx="6" fill="rgba(255,255,255,0.9)" stroke="rgba(0,0,0,0.1)"/>
  <text x="310" y="232" text-anchor="middle" font-family="Arial, sans-serif" font-size="7" font-weight="bold" fill="#1f2937">VIDEO PRODUCTION</text>
  
  <!-- Camera -->
  <rect x="260" y="240" width="15" height="10" rx="2" fill="#374151"/>
  <circle cx="267.5" cy="245" r="3" fill="#6b7280"/>
  <circle cx="267.5" cy="245" r="2" fill="#000000"/>
  <text x="267.5" y="257" text-anchor="middle" font-family="Arial, sans-serif" font-size="4" fill="#1f2937">Camera</text>
  
  <!-- Lighting -->
  <circle cx="295" cy="245" r="5" fill="#fbbf24"/>
  <path d="M290 245 L300 245 M295 240 L295 250 M291.5 241.5 L298.5 248.5 M298.5 241.5 L291.5 248.5" stroke="#ffffff" stroke-width="1"/>
  <text x="295" y="257" text-anchor="middle" font-family="Arial, sans-serif" font-size="4" fill="#1f2937">Lighting</text>
  
  <!-- Microphone -->
  <rect x="315" y="242" width="4" height="8" rx="2" fill="#6b7280"/>
  <circle cx="317" cy="240" r="2" fill="#374151"/>
  <text x="317" y="257" text-anchor="middle" font-family="Arial, sans-serif" font-size="4" fill="#1f2937">Audio</text>
  
  <!-- Editing -->
  <rect x="335" y="240" width="12" height="8" rx="2" fill="#3b82f6"/>
  <rect x="337" y="242" width="8" height="1" fill="#ffffff"/>
  <rect x="337" y="244" width="6" height="1" fill="#ffffff"/>
  <rect x="337" y="246" width="8" height="1" fill="#ffffff"/>
  <text x="341" y="257" text-anchor="middle" font-family="Arial, sans-serif" font-size="4" fill="#1f2937">Edit</text>
  
  <!-- Content Calendar -->
  <text x="310" y="268" text-anchor="middle" font-family="Arial, sans-serif" font-size="5" fill="#6b7280">Publishing Schedule</text>
  <rect x="255" y="270" width="110" height="6" rx="3" fill="#e5e7eb"/>
  <rect x="260" y="270" width="8" height="6" rx="3" fill="#ff0050"/>
  <rect x="275" y="270" width="12" height="6" rx="3" fill="#dc2743"/>
  <rect x="295" y="270" width="10" height="6" rx="3" fill="#ff0000"/>
  <rect x="315" y="270" width="15" height="6" rx="3" fill="#10b981"/>
  <rect x="340" y="270" width="8" height="6" rx="3" fill="#3b82f6"/>
  
  <!-- Viral Content Strategy -->
  <rect x="60" y="250" width="90" height="40" rx="4" fill="rgba(255,255,255,0.9)" stroke="rgba(0,0,0,0.1)"/>
  <text x="105" y="260" text-anchor="middle" font-family="Arial, sans-serif" font-size="6" font-weight="bold" fill="#1f2937">VIRAL STRATEGY</text>
  
  <!-- Trending Elements -->
  <rect x="65" y="265" width="12" height="6" rx="2" fill="#ff0050"/>
  <text x="71" y="269" text-anchor="middle" font-family="Arial, sans-serif" font-size="3" font-weight="bold" fill="white">TREND</text>
  
  <rect x="80" y="265" width="12" height="6" rx="2" fill="#10b981"/>
  <text x="86" y="269" text-anchor="middle" font-family="Arial, sans-serif" font-size="3" font-weight="bold" fill="white">HOOK</text>
  
  <rect x="95" y="265" width="12" height="6" rx="2" fill="#3b82f6"/>
  <text x="101" y="269" text-anchor="middle" font-family="Arial, sans-serif" font-size="3" font-weight="bold" fill="white">CTA</text>
  
  <rect x="110" y="265" width="12" height="6" rx="2" fill="#f59e0b"/>
  <text x="116" y="269" text-anchor="middle" font-family="Arial, sans-serif" font-size="3" font-weight="bold" fill="white">MUSIC</text>
  
  <rect x="125" y="265" width="12" height="6" rx="2" fill="#8b5cf6"/>
  <text x="131" y="269" text-anchor="middle" font-family="Arial, sans-serif" font-size="3" font-weight="bold" fill="white">HASH</text>
  
  <!-- Success metrics -->
  <text x="75" y="278" font-family="Arial, sans-serif" font-size="4" fill="#6b7280">Viral Rate:</text>
  <text x="125" y="278" font-family="Arial, sans-serif" font-size="4" font-weight="bold" fill="#10b981">35%</text>
  
  <text x="75" y="285" font-family="Arial, sans-serif" font-size="4" fill="#6b7280">Avg Views:</text>
  <text x="125" y="285" font-family="Arial, sans-serif" font-size="4" font-weight="bold" fill="#ff0050">2.5M</text>
  
  <!-- Platform Logos -->
  <rect x="350" y="130" width="15" height="15" rx="3" fill="#000000"/>
  <text x="357.5" y="139" text-anchor="middle" font-family="Arial, sans-serif" font-size="6" font-weight="bold" fill="#ff0050">T</text>
  
  <circle cx="375" cy="155" r="8" fill="#ff0000"/>
  <path d="M371 155 L379 159 L371 163 Z" fill="white"/>
  
  <circle cx="360" cy="180" r="8" fill="#dc2743"/>
  <circle cx="360" cy="180" r="5" fill="white"/>
  <circle cx="360" cy="180" r="2" fill="#dc2743"/>
  
  <!-- Views Counter -->
  <rect x="180" y="200" width="60" height="20" rx="4" fill="rgba(255,255,255,0.9)" stroke="rgba(0,0,0,0.1)"/>
  <text x="210" y="208" text-anchor="middle" font-family="Arial, sans-serif" font-size="5" font-weight="bold" fill="#1f2937">TOTAL VIEWS</text>
  <text x="210" y="216" text-anchor="middle" font-family="Arial, sans-serif" font-size="8" font-weight="bold" fill="#ff0050">25.9M</text>
  
  <!-- Growth Arrow -->
  <path d="M 150 180 Q 190 160 230 180" stroke="#10b981" stroke-width="4" fill="none"/>
  <path d="M 223 177 L 230 180 L 223 183 Z" fill="#10b981"/>
  <text x="190" y="170" text-anchor="middle" font-family="Arial, sans-serif" font-size="10" font-weight="bold" fill="#10b981">VIRAL</text>
  
  <!-- Fire emoji effects -->
  <g transform="translate(20, 180)">
    <path d="M 0 15 C 0 10, 3 5, 8 5 C 10 2, 15 0, 18 5 C 20 8, 18 12, 15 15 C 12 18, 8 20, 5 18 C 2 16, 0 12, 0 15 Z" fill="#ff6b35"/>
    <path d="M 5 12 C 5 8, 7 6, 10 6 C 12 4, 14 3, 15 6 C 16 8, 15 10, 13 12 C 11 14, 8 15, 6 14 C 4 13, 5 10, 5 12 Z" fill="#fbbf24"/>
  </g>
  
  <!-- Performance Badge -->
  <ellipse cx="350" cy="30" rx="35" ry="12" fill="rgba(255,0,80,0.9)"/>
  <text x="350" y="33" text-anchor="middle" font-family="Arial, sans-serif" font-size="6" font-weight="bold" fill="white">10M+ VIDEO VIEWS</text>
</svg>