<svg width="400" height="400" viewBox="0 0 400 400" xmlns="http://www.w3.org/2000/svg">
  <defs>
    <linearGradient id="warehouseGradient" x1="0%" y1="0%" x2="100%" y2="100%">
      <stop offset="0%" style="stop-color:#3B82F6;stop-opacity:1" />
      <stop offset="100%" style="stop-color:#1E40AF;stop-opacity:1" />
    </linearGradient>
  </defs>
  
  <!-- Background -->
  <rect width="400" height="400" fill="#F8FAFC"/>
  
  <!-- Warehouse Building -->
  <rect x="50" y="150" width="300" height="200" fill="url(#warehouseGradient)" rx="10"/>
  
  <!-- Roof -->
  <polygon points="40,150 200,80 360,150" fill="#1E40AF"/>
  
  <!-- Main Door -->
  <rect x="170" y="250" width="60" height="100" fill="#FFFFFF" rx="5"/>
  <rect x="175" y="255" width="50" height="90" fill="#E2E8F0" rx="3"/>
  
  <!-- Windows -->
  <rect x="80" y="180" width="40" height="30" fill="#FFFFFF" rx="3"/>
  <rect x="130" y="180" width="40" height="30" fill="#FFFFFF" rx="3"/>
  <rect x="230" y="180" width="40" height="30" fill="#FFFFFF" rx="3"/>
  <rect x="280" y="180" width="40" height="30" fill="#FFFFFF" rx="3"/>
  
  <!-- Shelving inside -->
  <rect x="85" y="220" width="30" height="80" fill="#94A3B8" rx="2"/>
  <rect x="125" y="220" width="30" height="80" fill="#94A3B8" rx="2"/>
  <rect x="245" y="220" width="30" height="80" fill="#94A3B8" rx="2"/>
  <rect x="285" y="220" width="30" height="80" fill="#94A3B8" rx="2"/>
  
  <!-- Boxes on shelves -->
  <rect x="87" y="225" width="8" height="8" fill="#F59E0B" rx="1"/>
  <rect x="97" y="225" width="8" height="8" fill="#10B981" rx="1"/>
  <rect x="107" y="225" width="8" height="8" fill="#EF4444" rx="1"/>
  
  <rect x="127" y="235" width="8" height="8" fill="#8B5CF6" rx="1"/>
  <rect x="137" y="235" width="8" height="8" fill="#F59E0B" rx="1"/>
  <rect x="147" y="235" width="8" height="8" fill="#06B6D4" rx="1"/>
  
  <!-- Forklift -->
  <rect x="60" y="320" width="25" height="15" fill="#F59E0B" rx="2"/>
  <rect x="55" y="315" width="35" height="8" fill="#F59E0B" rx="1"/>
  <circle cx="65" cy="338" r="5" fill="#374151"/>
  <circle cx="80" cy="338" r="5" fill="#374151"/>
  
  <!-- Loading dock -->
  <rect x="350" y="280" width="50" height="70" fill="#E5E7EB" rx="5"/>
  <rect x="360" y="290" width="30" height="50" fill="#D1D5DB" rx="3"/>
</svg>
